<svg viewBox="0 0 24 24" fill="none" xmlns="http://www.w3.org/2000/svg">
  <mask id="image-gen-outbox-mask" style="mask-type:alpha" maskUnits="userSpaceOnUse" x="3" y="3" width="18" height="18">
    <path d="M3 11C3 7.229 3 5.343 4.172 4.172C5.343 3 7.229 3 11 3H13C16.771 3 18.657 3 19.828 4.172C21 5.343 21 7.229 21 11V13C21 16.771 21 18.657 19.828 19.828C18.657 21 16.771 21 13 21H11C7.229 21 5.343 21 4.172 19.828C3 18.657 3 16.771 3 13V11Z" fill="#000"/>
  </mask>
  <g mask="url(#image-gen-outbox-mask)">
    <path d="M12.898 14.788L4.366 5.402C4.133 5.146 3.803 5 3.457 5C2.1 5 1 6.1 1 7.457V15.501C1 19.272 1 21.158 2.172 22.329C3.343 23.501 5.229 23.501 9 23.501H17.034C17.538 23.501 17.789 23.501 18.009 23.477C19.645 23.296 21.003 22.13 21.431 20.541C21.488 20.327 21.526 20.079 21.603 19.582C21.655 19.244 21.681 19.076 21.692 18.916C21.778 17.742 21.342 16.591 20.501 15.768C20.387 15.655 20.256 15.546 19.994 15.328L18.177 13.814C17.963 13.635 17.855 13.546 17.763 13.485C16.835 12.871 15.584 13.133 14.98 14.067C14.92 14.16 14.858 14.285 14.733 14.535C14.662 14.677 14.626 14.748 14.593 14.797C14.261 15.302 13.56 15.399 13.103 15.003C13.058 14.964 13.005 14.905 12.898 14.788Z" fill="#000"/>
  </g>
  <path d="M21 11V13C21 16.771 21 18.657 19.828 19.828C18.657 21 16.771 21 13 21H11C7.229 21 5.343 21 4.172 19.828C3 18.657 3 16.771 3 13V11C3 7.229 3 5.343 4.172 4.172C5.343 3 7.229 3 11 3H12" stroke="#000" stroke-width="1.2"/>
  <path d="M15.625 6.531L20.625 2.531L21.375 3.469L16.375 7.469C16.116 7.676 15.739 7.634 15.532 7.375C15.325 7.116 15.366 6.738 15.625 6.531Z" fill="#000"/>
  <path d="M20.4 8V3.6H16V2.4H21.6V8H20.4Z" fill="#000"/>
</svg>
